<svg width="24" height="24" viewBox="0 0 24 24" fill="none" xmlns="http://www.w3.org/2000/svg">
<g clip-path="url(#clip0_1168_33710)">
<circle cx="12" cy="12" r="12" fill="#E84143"/>
<path fill-rule="evenodd" clip-rule="evenodd" d="M12.683 11.9695C12.683 11.9804 12.683 11.9911 12.6829 12.0019H12.6833C12.6831 12.0127 12.683 12.0234 12.683 12.0343C12.683 13.5289 13.9043 14.7405 15.4109 14.7405V16.0936C13.1511 16.0936 11.3191 14.2762 11.3191 12.0343C11.3191 12.0235 11.3192 12.0127 11.3193 12.0019H11.319C11.3191 11.9911 11.3191 11.9804 11.3191 11.9695C11.3191 10.4749 10.0978 9.26329 8.59131 9.26329V7.91016C10.8511 7.91016 12.683 9.72761 12.683 11.9695Z" fill="url(#paint0_linear_1168_33710)"/>
<path fill-rule="evenodd" clip-rule="evenodd" d="M6.32915 8.59211C5.22663 9.32516 4.5 10.5787 4.5 12.0019C4.5 14.2617 6.33193 16.0936 8.59174 16.0936C9.56778 16.0936 10.464 15.7519 11.1672 15.1816L16.3078 11.1759C15.8448 10.5817 14.9879 10.4754 14.3936 10.9384L10.2185 14.1918V14.1918C9.7643 14.5297 9.20137 14.7297 8.59174 14.7297C7.0852 14.7297 5.86391 13.5084 5.86391 12.0019C5.86391 10.4954 7.0852 9.27407 8.59174 9.27407C9.42834 9.27407 10.2063 9.02301 10.8543 8.59211C10.2063 8.16122 9.42834 7.91016 8.59174 7.91016C7.75516 7.91016 6.97722 8.16122 6.32915 8.59211ZM17.6708 15.4117C18.7734 14.6786 19.5 13.4251 19.5 12.0019C19.5 9.74209 17.6681 7.91016 15.4083 7.91016C14.4323 7.91016 13.5361 8.25189 12.8328 8.82223L7.69217 12.8279C8.15516 13.4221 9.01218 13.5284 9.60635 13.0654L13.7816 9.81202L13.7815 9.81199C14.2357 9.47405 14.7987 9.27407 15.4083 9.27407C16.9148 9.27407 18.1361 10.4954 18.1361 12.0019C18.1361 13.5084 16.9148 14.7297 15.4083 14.7297C14.5717 14.7297 13.7938 14.9808 13.1457 15.4117C13.7938 15.8426 14.5717 16.0936 15.4083 16.0936C16.2449 16.0936 17.0228 15.8426 17.6708 15.4117Z" fill="white"/>
</g>
<defs>
<linearGradient id="paint0_linear_1168_33710" x1="10.2077" y1="9.62085" x2="13.4894" y2="14.6307" gradientUnits="userSpaceOnUse">
<stop stop-color="white"/>
<stop offset="0.28" stop-color="white" stop-opacity="0"/>
<stop offset="0.5" stop-color="white"/>
<stop offset="0.7" stop-color="white" stop-opacity="0"/>
<stop offset="1" stop-color="white"/>
</linearGradient>
<clipPath id="clip0_1168_33710">
<rect width="24" height="24" fill="white"/>
</clipPath>
</defs>
</svg>
